<?xml version="1.0" standalone="no"?>
<!DOCTYPE svg PUBLIC "-//W3C//DTD SVG 20010904//EN"
 "http://www.w3.org/TR/2001/REC-SVG-20010904/DTD/svg10.dtd">
<svg version="1.0" xmlns="http://www.w3.org/2000/svg"
 width="512.000000pt" height="512.000000pt" viewBox="0 0 512.000000 512.000000"
 preserveAspectRatio="xMidYMid meet">
<metadata>
Created by potrace 1.14, written by Peter Selinger 2001-2017
</metadata>
<g transform="translate(0.000000,512.000000) scale(0.100000,-0.100000)"
fill="#000000" stroke="none">
<path d="M733 5102 c-93 -33 -158 -97 -194 -194 -20 -52 -21 -75 -20 -2338 0
-1418 3 -2301 9 -2327 22 -96 102 -186 196 -222 47 -18 81 -20 406 -20 342 -1
357 -1 377 18 29 27 37 56 22 83 -25 47 -25 47 -387 48 -321 0 -345 1 -382 20
-21 11 -49 34 -62 52 l-23 33 -3 2293 c-2 2269 -2 2293 18 2331 11 22 34 50
52 63 l33 23 1773 3 c1751 2 1773 2 1811 -18 22 -11 50 -34 63 -52 l23 -33 3
-1835 2 -1836 -442 0 c-406 0 -446 -2 -478 -18 -49 -26 -69 -45 -93 -91 -20
-39 -21 -54 -21 -487 l-1 -448 -810 0 c-649 -1 -813 -3 -827 -14 -50 -37 -34
-120 26 -131 17 -3 418 -5 891 -3 l860 3 50 24 c34 17 102 76 214 187 155 152
164 164 164 199 0 45 -29 75 -73 75 -24 0 -57 -28 -184 -155 -85 -85 -156
-152 -158 -148 -3 7 -2 778 1 825 0 9 11 20 24 24 26 9 817 12 823 3 2 -3 -63
-73 -145 -155 -178 -180 -185 -190 -170 -233 13 -35 35 -51 75 -51 21 0 59 33
190 164 171 173 205 216 224 286 9 32 12 534 12 1924 l0 1881 -22 57 c-27 74
-87 140 -158 175 l-57 28 -1790 2 c-1698 2 -1793 2 -1842 -15z"/>
<path d="M1023 4759 c-52 -7 -106 -43 -132 -90 -20 -35 -21 -51 -21 -809 0
-766 0 -774 21 -817 14 -30 35 -52 67 -70 l45 -27 691 0 691 0 40 23 c22 12
52 38 65 58 l25 36 3 374 3 373 -25 25 c-32 32 -70 32 -101 0 l-25 -24 0 -350
c0 -253 -3 -352 -12 -357 -13 -8 -118 -12 -118 -4 -2 46 -33 218 -46 249 -21
53 -98 122 -164 147 l-50 19 26 35 c53 72 94 175 110 275 3 22 12 47 19 55 47
55 28 332 -28 415 -63 92 -144 136 -258 141 -42 2 -106 10 -141 17 -36 8 -94
12 -129 10 -122 -9 -267 -101 -315 -201 -47 -99 -55 -291 -15 -375 11 -23 29
-80 41 -127 11 -46 25 -89 30 -94 6 -6 10 -18 10 -28 0 -10 4 -18 9 -18 5 0
11 -8 15 -17 3 -10 17 -35 30 -55 l25 -37 -49 -16 c-61 -20 -129 -80 -157
-137 -25 -51 -30 -72 -39 -164 -9 -96 -13 -101 -71 -97 -26 2 -54 5 -60 8 -10
3 -13 163 -13 750 0 683 1 746 16 752 25 9 1296 10 1317 0 15 -7 17 -29 17
-253 l0 -245 25 -24 c31 -32 69 -32 101 0 l25 25 -1 262 c-1 273 -3 284 -48
335 -49 57 -40 56 -752 57 -360 1 -674 -1 -697 -5z m686 -459 c20 -5 67 -10
105 -10 86 0 144 -29 172 -87 24 -50 33 -213 12 -213 -30 0 -93 42 -135 89
-68 77 -114 79 -186 7 -47 -47 -162 -90 -262 -98 l-40 -3 -3 57 c-12 196 141
312 337 258z m136 -407 c27 -17 56 -30 107 -47 16 -5 16 -9 1 -58 -59 -200
-202 -301 -339 -239 -80 36 -165 154 -180 250 -6 36 -4 41 13 41 65 0 241 61
292 101 24 19 25 19 50 -4 14 -13 40 -33 56 -44z m-252 -498 c41 -17 190 -15
224 4 18 9 36 6 100 -20 130 -51 147 -69 158 -174 3 -33 8 -67 11 -77 3 -9 -1
-20 -7 -24 -19 -12 -769 -11 -770 1 -2 13 -2 8 6 89 6 70 22 112 48 134 12 11
173 80 188 81 4 1 22 -6 42 -14z"/>
<path d="M3100 4758 c-113 -17 -252 -113 -300 -208 -88 -173 -54 -382 83 -506
156 -141 391 -147 526 -14 52 51 56 97 14 130 -34 27 -75 21 -112 -16 -42 -42
-80 -57 -151 -57 -147 -1 -260 115 -260 267 0 92 64 191 149 233 20 9 66 19
102 21 57 4 76 0 134 -26 37 -16 76 -27 86 -25 24 7 59 50 59 73 0 48 -98 112
-193 126 -74 11 -81 11 -137 2z"/>
<path d="M3656 4753 c-56 -29 -57 -28 130 -563 84 -239 98 -262 163 -254 19 3
43 12 53 21 19 17 248 695 248 735 0 60 -79 90 -123 46 -14 -15 -50 -108 -102
-270 -44 -136 -82 -248 -85 -248 -3 0 -17 35 -32 78 -97 285 -149 427 -163
442 -22 24 -57 30 -89 13z"/>
<path d="M2776 3589 c-34 -27 -36 -77 -3 -107 23 -22 27 -22 418 -22 428 0
429 0 443 55 7 29 -15 79 -39 89 -9 3 -191 6 -404 6 -378 0 -389 -1 -415 -21z"/>
<path d="M2776 3239 c-36 -28 -36 -80 0 -108 26 -21 35 -21 606 -21 l579 0 22
24 c31 33 32 68 2 100 l-24 26 -579 0 c-571 0 -580 0 -606 -21z"/>
<path d="M1145 2595 c-14 -13 -25 -36 -25 -50 0 -14 11 -37 25 -50 l24 -25
401 0 401 0 24 25 c14 13 25 36 25 50 0 14 -11 37 -25 50 l-24 25 -401 0 -401
0 -24 -25z"/>
<path d="M2245 2595 c-14 -13 -25 -36 -25 -50 0 -14 11 -37 25 -50 l24 -25
841 0 841 0 24 25 c14 13 25 36 25 50 0 14 -11 37 -25 50 l-24 25 -841 0 -841
0 -24 -25z"/>
<path d="M1145 2245 c-14 -13 -25 -36 -25 -50 0 -14 11 -37 25 -50 l24 -25
818 0 c883 1 841 -2 863 54 11 30 0 61 -29 83 -12 10 -207 12 -834 13 l-818 0
-24 -25z"/>
<path d="M3088 2256 c-43 -32 -38 -103 8 -125 17 -8 151 -11 440 -11 l415 0
24 25 c14 13 25 36 25 50 0 14 -11 37 -25 50 l-24 25 -423 0 c-333 -1 -427 -3
-440 -14z"/>
<path d="M1669 1787 c-40 -31 -41 -93 -2 -123 24 -18 758 -20 798 -2 46 21 50
92 6 125 -23 18 -779 18 -802 0z"/>
<path d="M1145 1425 c-14 -13 -25 -36 -25 -50 0 -14 11 -37 25 -50 22 -22 32
-25 105 -25 73 0 83 3 105 25 14 13 25 36 25 50 0 14 -11 37 -25 50 -22 22
-32 25 -105 25 -73 0 -83 -3 -105 -25z"/>
<path d="M1595 1425 c-14 -13 -25 -36 -25 -50 0 -14 11 -37 25 -50 l24 -25
676 0 676 0 24 25 c32 31 32 69 0 100 l-24 25 -676 0 -676 0 -24 -25z"/>
<path d="M1145 1075 c-14 -13 -25 -36 -25 -50 0 -14 11 -37 25 -50 22 -22 32
-25 105 -25 73 0 83 3 105 25 14 13 25 36 25 50 0 14 -11 37 -25 50 -22 22
-32 25 -105 25 -73 0 -83 -3 -105 -25z"/>
<path d="M1595 1075 c-14 -13 -25 -36 -25 -50 0 -14 11 -37 25 -50 l24 -25
676 0 676 0 24 25 c32 31 32 69 0 100 l-24 25 -676 0 -676 0 -24 -25z"/>
<path d="M1145 725 c-14 -13 -25 -36 -25 -50 0 -14 11 -37 25 -50 22 -22 32
-25 105 -25 73 0 83 3 105 25 14 13 25 36 25 50 0 14 -11 37 -25 50 -22 22
-32 25 -105 25 -73 0 -83 -3 -105 -25z"/>
<path d="M1595 725 c-14 -13 -25 -36 -25 -50 0 -14 11 -37 25 -50 l24 -25 676
0 676 0 24 25 c32 31 32 69 0 100 l-24 25 -676 0 -676 0 -24 -25z"/>
</g>
</svg>
